<svg xmlns="http://www.w3.org/2000/svg" width="24" height="24" viewBox="0 0 24 24" fill="none" stroke="white" stroke-width="2" stroke-linecap="round" stroke-linejoin="round">
  <path d="M12 15.5a3.5 3.5 0 1 0 0-7 3.5 3.5 0 0 0 0 7Z"/>
  <path d="M19.4 15a1.7 1.7 0 0 0 .34 1.88l.06.06a2 2 0 1 1-2.83 2.83l-.06-.06A1.7 1.7 0 0 0 15 19.37a1.7 1.7 0 0 0-1 .92l-.03.08a2 2 0 0 1-3.84 0l-.03-.08a1.7 1.7 0 0 0-1-.92 1.7 1.7 0 0 0-1.88.34l-.06.06a2 2 0 1 1-2.83-2.83l.06-.06A1.7 1.7 0 0 0 4.63 15a1.7 1.7 0 0 0-.92-1l-.08-.03a2 2 0 0 1 0-3.84l.08-.03a1.7 1.7 0 0 0 .92-1 1.7 1.7 0 0 0-.34-1.88l-.06-.06a2 2 0 1 1 2.83-2.83l.06.06A1.7 1.7 0 0 0 9 4.63a1.7 1.7 0 0 0 1-.92l.03-.08a2 2 0 0 1 3.84 0l.03.08a1.7 1.7 0 0 0 1 .92 1.7 1.7 0 0 0 1.88-.34l.06-.06a2 2 0 1 1 2.83 2.83l-.06.06A1.7 1.7 0 0 0 19.37 9c.06.38.3.73.92 1l.08.03a2 2 0 0 1 0 3.84l-.08.03a1.7 1.7 0 0 0-.92 1Z"/>
</svg>
